<svg width="25" height="25" viewBox="0 0 25 25" fill="none" xmlns="http://www.w3.org/2000/svg">
<path d="M14.8438 10.5469H17.9688" stroke="white" stroke-width="2" stroke-linecap="round" stroke-linejoin="round"/>
<path d="M7.03125 10.5469H10.1562" stroke="white" stroke-width="2" stroke-linecap="round" stroke-linejoin="round"/>
<path d="M8.59375 8.98438V12.1094" stroke="white" stroke-width="2" stroke-linecap="round" stroke-linejoin="round"/>
<path d="M16.7969 5.43945L8.20313 5.46875C7.00952 5.47102 5.8547 5.89287 4.94067 6.66051C4.02665 7.42815 3.4116 8.4927 3.20313 9.66797V9.66797L1.60156 17.8809C1.49873 18.4544 1.58179 19.0458 1.83864 19.5688C2.09549 20.0918 2.51269 20.5191 3.02941 20.7883C3.54614 21.0576 4.13537 21.1548 4.71119 21.0656C5.287 20.9765 5.8193 20.7058 6.23047 20.293V20.293L10.4492 15.625L16.7969 15.5957C18.1437 15.5957 19.4353 15.0607 20.3877 14.1084C21.34 13.156 21.875 11.8644 21.875 10.5176C21.875 9.17078 21.34 7.87913 20.3877 6.9268C19.4353 5.97447 18.1437 5.43945 16.7969 5.43945V5.43945Z" stroke="white" stroke-width="2" stroke-linecap="round" stroke-linejoin="round"/>
<path d="M21.7969 9.63867L23.3984 17.8809C23.5013 18.4544 23.4182 19.0458 23.1614 19.5688C22.9045 20.0918 22.4873 20.5191 21.9706 20.7883C21.4539 21.0576 20.8646 21.1548 20.2888 21.0656C19.713 20.9765 19.1807 20.7058 18.7695 20.293V20.293L14.5508 15.6055" stroke="white" stroke-width="2" stroke-linecap="round" stroke-linejoin="round"/>
</svg>
