<svg width="20" height="20" viewBox="0 0 20 20" fill="none" xmlns="http://www.w3.org/2000/svg">
<path d="M17.8203 9.46876L6.57812 2.59376C6.48349 2.53539 6.37499 2.50331 6.26382 2.50085C6.15265 2.4984 6.04284 2.52564 5.94571 2.57978C5.84859 2.63391 5.76766 2.71298 5.71128 2.80883C5.65491 2.90467 5.62512 3.01382 5.625 3.12501V16.875C5.62512 16.9862 5.65491 17.0954 5.71128 17.1912C5.76766 17.287 5.84859 17.3661 5.94571 17.4203C6.04284 17.4744 6.15265 17.5016 6.26382 17.4992C6.37499 17.4967 6.48349 17.4646 6.57812 17.4063L17.8203 10.5313C17.9126 10.4767 17.9891 10.399 18.0423 10.3058C18.0954 10.2127 18.1233 10.1073 18.1233 10C18.1233 9.89277 18.0954 9.78737 18.0423 9.69421C17.9891 9.60106 17.9126 9.52335 17.8203 9.46876V9.46876Z" stroke="white" stroke-width="2" stroke-linecap="round" stroke-linejoin="round"/>
</svg>
